Coordinates
version=1
nRows=14
nColumns=36
inDegrees=yes

Units are S.I. units (second, meters, Newtons, ...)
If the header above contains a line with 'inDegrees', this indicates whether rotational values are in degrees (yes) or radians (no).

endheader
time	pelvis_tilt	pelvis_list	pelvis_rotation	pelvis_tx	pelvis_ty	pelvis_tz	hip_flexion_r	hip_adduction_r	hip_rotation_r	knee_angle_r	knee_angle_r_beta	ankle_angle_r	subtalar_angle_r	mtp_angle_r	hip_flexion_l	hip_adduction_l	hip_rotation_l	knee_angle_l	knee_angle_l_beta	ankle_angle_l	subtalar_angle_l	mtp_angle_l	lumbar_extension	lumbar_bending	lumbar_rotation	arm_flex_r	arm_add_r	arm_rot_r	elbow_flex_r	pro_sup_r	arm_flex_l	arm_add_l	arm_rot_l	elbow_flex_l	pro_sup_l
      4.53333330	     -9.03516250	     -1.01794943	    -10.00985692	      1.73947963	      1.02719432	      0.07090280	      8.59750457	     -4.49981920	    -15.18678053	      0.61175435	      0.01067713	     -3.05417771	      6.64664778	     -7.49999987	      6.95812352	     -6.51555074	     -4.95393971	      1.36222545	      0.02377532	      4.05665107	      4.50202589	     -7.49999987	     -5.91545235	     -2.44108790	      0.27488494	     42.01500661	    -28.97567897	     35.85357276	    136.17659078	     77.43810800	     55.04852261	    -37.42471348	     35.82856433	    137.30951627	     78.97114433
      4.55000000	     -8.80228981	     -0.90210401	     -9.94899538	      1.74250315	      1.01753294	      0.07447297	      8.21541781	     -4.63649338	    -14.73942301	      0.58085612	      0.01013785	     -2.60167601	      5.69918065	     -7.49999987	      6.56711476	     -6.27827115	     -4.42262697	      1.24241036	      0.02168415	      4.07967859	      3.76501713	     -7.49999987	     -5.58763953	     -2.53307641	      0.22903231	     38.29638540	    -28.61049450	     36.04193350	    138.45978106	     75.65908821	     51.83945668	    -37.09189358	     35.89918716	    138.76429437	     76.82508688
      4.56666670	     -8.39993203	     -0.85816124	     -9.91490208	      1.74559591	      1.00786081	      0.07250681	      7.68082052	     -4.80588783	    -14.70767202	      0.60353102	      0.01053360	     -1.81908003	      5.81879617	     -7.49999987	      5.94308308	     -6.07231434	     -4.06961973	      1.15613578	      0.02017838	      4.37326297	      3.41236290	     -7.49999987	     -5.63488846	     -2.51767269	      0.46813663	     34.18663479	    -28.50004362	     35.38226495	    139.68175891	     83.05653228	     47.70744892	    -36.93470949	     34.48990911	    140.08056740	     80.85039808
      4.58333330	     -8.02028658	     -0.83303313	     -9.93898202	      1.74882012	      1.00033267	      0.07630776	      7.16223489	     -4.91438648	    -14.39296452	      0.61930460	      0.01080890	     -1.23668804	      5.39663673	     -7.49999987	      5.31944614	     -5.92295740	     -3.76893042	      1.08461148	      0.01893004	      4.60885348	      2.91601379	     -7.49999987	     -5.56348340	     -2.48616960	      0.72513687	     28.89630234	    -28.24590268	     34.31654429	    139.60535343	     82.11786407	     42.79342934	    -36.90150637	     33.95356457	    140.54061473	     79.82277692
      4.60000000	     -7.58730281	     -0.89191447	     -9.96844526	      1.75245531	      1.00229262	      0.08077413	      6.51700727	     -4.89909040	    -14.04257516	      0.62810584	      0.01096251	     -0.74454423	      5.05149814	     -7.49999987	      4.59988885	     -5.90815432	     -3.46511543	      0.99498345	      0.01736574	      4.84839562	      2.45026856	     -7.49999987	     -5.55671002	     -2.67532364	      0.88815596	     23.63891099	    -27.07621489	     33.42216681	    139.11987310	     82.94083296	     37.71056643	    -36.76521349	     33.12978532	    141.22615338	     80.04347386
      4.61666670	     -6.98808775	     -0.88935195	     -9.96648229	      1.75917143	      1.00083405	      0.07497574	      5.66844821	     -5.06948586	    -13.71918839	      0.61826551	      0.01079077	     -0.21676608	      4.75360018	     -7.49999987	      3.64906623	     -5.72282698	     -3.09878421	      0.87522311	      0.01527552	      5.00026928	      1.96173550	     -7.49999987	     -5.83127425	     -2.43061634	      0.70823839	     18.33677702	    -26.22843012	     32.71660710	    137.66956197	     89.11800845	     30.04659184	    -35.80029306	     30.19761501	    141.87360186	     81.36542325
      4.63333330	     -6.46993433	     -0.92614293	     -9.97614451	      1.75475588	      0.99875156	      0.07862504	      4.97903164	     -5.11746799	    -13.35277767	      0.64421159	      0.01124361	      0.36813840	      4.33612300	     -7.49999987	      2.96481145	     -5.65547031	     -2.85419758	      0.89991208	      0.01570643	      5.24434058	      1.49933592	     -7.49999987	     -5.93007837	     -2.39403217	      0.89544216	     13.42071401	    -24.78191675	     30.93063706	    135.44466587	     91.20094637	     23.74136620	    -34.07398310	     27.49053518	    141.12953140	     80.75835369
      4.65000000	     -5.83576302	     -1.00311578	     -9.92109662	      1.76190977	      1.00255633	      0.07967209	      4.08694834	     -5.16149867	    -13.02717353	      0.67608325	      0.01179988	      0.87628803	      4.02139204	     -7.49999987	      2.08752288	     -5.59999991	     -2.71649690	      0.83836139	      0.01463217	      5.34470957	      1.17784492	     -7.49999987	     -5.96630926	     -2.49367888	      1.15909915	      9.37068763	    -23.58735321	     28.90170262	    132.90787854	     91.28339640	     19.03361720	    -32.19710787	     27.05589951	    140.87208883	     80.74666958
      4.66666670	     -5.33737320	     -1.07475885	     -9.84086052	      1.76554078	      1.00760860	      0.08427949	      3.31365342	     -5.14447923	    -12.74231953	      0.69862023	      0.01219322	      1.37453836	      3.72134897	     -7.49999987	      1.36655895	     -5.60065351	     -2.45884287	      0.76225960	      0.01330394	      5.54305349	      0.90467325	     -7.49999987	     -5.70296327	     -2.49082404	      1.52722028	      4.98481635	    -22.28534922	     26.15423386	    131.05686772	     91.38383880	     13.85831782	    -29.55927006	     24.43597540	    139.89111281	     80.44061052
      4.68333330	     -4.87596130	     -1.11103353	     -9.76519550	      1.76478428	      1.01249383	      0.08462761	      2.62194108	     -5.14798159	    -12.49646787	      0.71925970	      0.01255345	      1.82501361	      3.56103502	     -7.49999987	      0.72521427	     -5.58721573	     -2.39210738	      0.66814503	      0.01166133	      5.60220128	      0.79699819	     -7.49999987	     -5.42930934	     -2.72257013	      1.14302684	      1.86369555	    -20.56813738	     24.17497066	    129.20793657	     91.43857770	     10.15224249	    -27.46814351	     23.65813669	    140.10686680	     80.25785878
      4.70000000	     -4.52196456	     -1.18235775	     -9.71463620	      1.76050940	      1.01142085	      0.08768609	      2.10104302	     -5.04988760	    -12.25462010	      0.75713565	      0.01321451	      2.25520744	      3.33835664	     -7.49999987	      0.28434268	     -5.65084489	     -2.39055553	      0.62444947	      0.01089870	      5.70478966	      0.68181627	     -7.49999987	     -5.13739106	     -2.92164868	      0.75924296	     -0.57536854	    -19.20619886	     22.46319589	    127.92714181	     91.42389972	      7.34270254	    -25.73252562	     23.41567170	    140.48828796	     80.09028590
      4.71666670	     -4.27508555	     -1.17247813	     -9.69663889	      1.76378719	      1.00999350	      0.08431152	      1.72777391	     -5.07854376	    -12.06555273	      0.80006197	      0.01396372	      2.65052118	      3.20910887	     -7.49999987	     -0.04797780	     -5.60698740	     -2.43803060	      0.58013353	      0.01012524	      5.71792196	      0.58665895	     -7.49999987	     -4.65986794	     -3.10270443	      0.90005662	     -2.80022965	    -18.33783392	     20.08684219	    127.14001215	     91.33224797	      4.95546413	    -23.63124968	     21.60969949	    140.06796724	     79.77889227
      4.73333330	     -4.02753046	     -1.21988680	     -9.67532999	      1.76343065	      1.00858527	      0.08476492	      1.37076825	     -5.03863228	    -11.89154150	      0.84288173	      0.01471106	      2.96559099	      3.01870290	     -7.49999987	     -0.34362509	     -5.62900156	     -2.49376421	      0.56445867	      0.00985166	      5.77958088	      0.49110246	     -7.49999987	     -4.31775264	     -3.21737482	      1.09119545	     -4.63362723	    -17.86247075	     18.25488149	    127.08227325	     91.54053177	      3.06257733	    -21.78152810	     19.35773578	    139.16487970	     77.07982683
      4.75000000	     -3.79808811	     -1.23125141	     -9.69700731	      1.76296019	      1.00846845	      0.08452658	      1.07561842	     -5.05814449	    -11.73215133	      0.92136119	      0.01608079	      3.32232930	      2.94737968	     -7.49999987	     -0.60099579	     -5.60861116	     -2.64933111	      0.56543237	      0.00986866	      5.77500578	      0.44167687	     -7.49999987	     -4.06375647	     -3.33833770	      1.29074509	     -6.03467854	    -17.73887420	     16.76407472	    127.31185857	     91.39898465	      2.03206346	    -20.35728578	     17.21659679	    139.32330383	     77.07027396
